Coordinates
version=1
nRows=13
nColumns=22
inDegrees=yes

Units are S.I. units (second, meters, Newtons, ...)
If the header above contains a line with 'inDegrees', this indicates whether rotational values are in degrees (yes) or radians (no).

endheader
time	pelvis_tilt	pelvis_list	pelvis_rotation	pelvis_tx	pelvis_ty	pelvis_tz	hip_flexion_r	hip_adduction_r	hip_rotation_r	knee_angle_r	ankle_angle_r	subtalar_angle_r	hip_flexion_l	hip_adduction_l	hip_rotation_l	knee_angle_l	ankle_angle_l	subtalar_angle_l	lumbar_extension	lumbar_bending	lumbar_rotation
      1.56000000	    -12.39052144	      2.52746419	    -18.75224708	     -0.97141038	      0.97383594	     -0.34404798	     26.23556391	      0.05108764	      1.33945563	    -32.04070307	     18.50176450	     -3.60787599	     19.74543214	      2.72989622	     -6.86111555	    -17.98552580	     18.99881914	     -3.52883486	      3.24166896	      0.43199890	      3.40016537
      1.57000000	    -12.19294283	      2.62352162	    -18.83732795	     -0.97079903	      0.97387231	     -0.34428148	     26.71543919	     -0.09875255	      1.40148991	    -33.18884703	     18.51057204	     -3.53254793	     19.50914795	      2.90685782	     -6.95912415	    -17.92212993	     19.02563588	     -3.57401297	      2.94892051	      0.23727565	      3.37175927
      1.58000000	    -11.99670521	      2.70036991	    -18.91186767	     -0.97014838	      0.97393856	     -0.34449884	     27.18920938	     -0.22986556	      1.44998176	    -34.30779330	     18.53062372	     -3.45438136	     19.27074925	      3.06606606	     -7.05123049	    -17.86594979	     19.05165884	     -3.61565042	      2.65215518	      0.06671962	      3.32827559
      1.59000000	    -11.80604828	      2.75153864	    -18.97177795	     -0.96945083	      0.97403877	     -0.34469902	     27.65028050	     -0.33623193	      1.48020144	    -35.37630453	     18.56416396	     -3.38695124	     19.03317791	      3.20018033	     -7.13111145	    -17.81945885	     19.08443471	     -3.64711711	      2.35417990	     -0.07219589	      3.26311961
      1.60000000	    -11.62130296	      2.78152997	    -19.01933699	     -0.96869171	      0.97417170	     -0.34485655	     28.09547487	     -0.42099842	      1.49133948	    -36.37732235	     18.61126884	     -3.32408691	     18.79278150	      3.31133805	     -7.20444269	    -17.77591993	     19.11988676	     -3.67003341	      2.06251377	     -0.18859929	      3.18057603
      1.61000000	    -11.45431760	      2.77064950	    -19.03983135	     -0.96786038	      0.97433320	     -0.34501831	     28.51869482	     -0.47240108	      1.46043083	    -37.28542809	     18.63614255	     -3.30218795	     18.56240868	      3.38042966	     -7.27053857	    -17.74782073	     19.19933325	     -3.67781873	      1.78063079	     -0.24831360	      3.05403531
      1.62000000	    -11.29350746	      2.75498374	    -19.04974821	     -0.96698351	      0.97452499	     -0.34516301	     28.92973307	     -0.51802539	      1.42882339	    -38.10673281	     18.67413599	     -3.29143289	     18.32849027	      3.44797971	     -7.31024396	    -17.70790269	     19.24902067	     -3.67596800	      1.50440854	     -0.30141577	      2.93774685
      1.63000000	    -11.14396386	      2.72276976	    -19.04521900	     -0.96605062	      0.97474556	     -0.34529350	     29.32208419	     -0.55034699	      1.38162851	    -38.82357946	     18.69178171	     -3.29748018	     18.09417257	      3.49970463	     -7.32586835	    -17.66246272	     19.29071896	     -3.66722986	      1.23848542	     -0.33218854	      2.81487634
      1.64000000	    -11.02155017	      2.65563222	    -19.02448610	     -0.96509884	      0.97496555	     -0.34539420	     29.70383165	     -0.54632252	      1.30639427	    -39.42704607	     18.64996059	     -3.31839982	     17.89285758	      3.50592900	     -7.33006712	    -17.65640646	     19.34919025	     -3.66085106	      0.98946669	     -0.31991922	      2.70064766
      1.65000000	    -10.89690610	      2.61294279	    -18.97291610	     -0.96403312	      0.97520483	     -0.34552259	     30.06504163	     -0.58588487	      1.21411156	    -39.92459061	     18.59174044	     -3.38225305	     17.65988825	      3.55548177	     -7.28592482	    -17.58407333	     19.38114783	     -3.64492945	      0.75859070	     -0.32898579	      2.52552128
      1.66000000	    -10.80233053	      2.53667225	    -18.92356683	     -0.96299980	      0.97541654	     -0.34558822	     30.42445058	     -0.58046938	      1.10876989	    -40.30626624	     18.46201842	     -3.41980315	     17.48091940	      3.54745100	     -7.26918096	    -17.58279098	     19.43984287	     -3.64107022	      0.53958109	     -0.29993898	      2.40232876
      1.67000000	    -10.71896701	      2.44226119	    -18.81782093	     -0.96187689	      0.97565168	     -0.34570114	     30.74492413	     -0.58416990	      0.94794560	    -40.55034487	     18.27670340	     -3.54655395	     17.29133154	      3.54282109	     -7.12786606	    -17.55597917	     19.47038976	     -3.63190934	      0.33104802	     -0.24391182	      2.19690889
      1.68000000	    -10.64566362	      2.36638465	    -18.75207734	     -0.96074093	      0.97583709	     -0.34571242	     31.07735565	     -0.58269875	      0.82622830	    -40.70798664	     18.06164773	     -3.57963693	     17.13536746	      3.52797557	     -7.10165859	    -17.57152283	     19.54118027	     -3.63465590	      0.14223087	     -0.20968557	      2.08094282
